/* XPM */
static char *egg1691856934[] = {
/* columns rows colors chars-per-pixel */
"32 32 5 1 ",
"  c None",
". c black",
"X c #8F6343",
"o c #A57442",
"O c #B07E41",
/* pixels */
"                                ",
"             .Xooo              ",
"           .Xooooooo            ",
"          .Xooooooooo           ",
"         .XXoooooooooo          ",
"        .XXXooooooOoooo         ",
"        .XXooooooOOOooo         ",
"       .XXXooooooOOOoooo        ",
"       .XXXooooooOOOOooo        ",
"      .XXXXooooooOOOOOooo       ",
"      .XXXooooooooOOOOooo       ",
"     .XXXXooooooooOOOOOooo      ",
"     .XXXXooooooooOOOOOooo      ",
"     .XXXXooooooooOOOOOOoo      ",
"    .XXXXXooooooooOOOOOOooo     ",
"    .XXXXooooooooooOOOOOooo     ",
"    .XXXXooooooooooOOOOOooo     ",
"    .XXXXooooooooooOOOOoooo     ",
"    ..XXXoooooooooooOOOooo.     ",
"     .XXXXooooooooooOOOooo      ",
"     .XXXXoooooooooooOoooo      ",
"     ..XXXXoooooooooooooo.      ",
"      .XXXXXooooooooooooo       ",
"      ..XXXXXooooooooooo.       ",
"       ..XXXXXXoooooooo.        ",
"        ..XXXXXXXooooo.         ",
"         ...XXXXXXXo..          ",
"           ...XXXX..            ",
"             .....              ",
"                                ",
"                                ",
"                                "
};
