/* XPM */
static char *_01692007899[] = {
/* columns rows colors chars-per-pixel */
"32 32 19 1 ",
"  c None",
". c #875739",
"X c #88593A",
"o c #8A5B3A",
"O c #905E3E",
"+ c #93613E",
"@ c #946240",
"# c #956240",
"$ c #956340",
"% c #966340",
"& c #976441",
"* c #986542",
"= c #9B6642",
"- c #9C6743",
"; c #9E6845",
": c #A16B47",
"> c #AD754D",
", c #C58255",
"< c #B1A5A4",
/* pixels */
"oooooooooooooooooooooooooooooooo",
"o,<,*,<,-,<,*,<,*,<,*,<,*,<,,,,X",
"o>>>->>>:>>>:>>>:>>>->>>->>>><,X",
"&>>>->>>:>>>:>>>:>>>:>>>:>>>>>,X",
"XXXXoXXXXXXXXXXXXXXXXXXXXXX>>>>X",
"XXXoXXXXXoXXXXXoXXXoXXXoXXXX>>>X",
"                         X..>>,o",
"                          ..>><o",
"                          ..>>,o",
"                          ..::-o",
"                          ..>>,o",
"                          ..>><o",
"                          ..>>,o",
"                          ..&ooo",
"                          ..>>,o",
"                          ..>><o",
"                          ..>>,o",
"                          ..:-@o",
"                          ..>>,o",
"                          ..>><o",
"                          ..>>,o",
"                          ..:&@o",
"                          ..>>,o",
"                          ..>><o",
"                          ..>>,o",
"                          ..=+&o",
"                          ..>>,o",
"                          ..>><o",
"                          ..>>,o",
"                          ..==@o",
"                          ..>>,o",
"                          ..>><o"
};
