/* XPM */
static char *_51692007769[] = {
/* columns rows colors chars-per-pixel */
"32 32 10 1 ",
"  c None",
". c #7C593E",
"X c #7E5B3E",
"o c #8A6445",
"O c #8B6546",
"+ c #8E6747",
"@ c #936B4A",
"# c #9E7450",
"$ c #B48158",
"% c #ACA4A3",
/* pixels */
"X$##X.                          ",
"Xooo..                          ",
"X$##..                          ",
"X%##.X                          ",
"X$##..                          ",
"Xo++..                          ",
"X$##..                          ",
"X%##.X                          ",
"X$##..                          ",
"X+@@..                          ",
"X$##..                          ",
"X%##.X                          ",
"X$##..                          ",
"Xo@@..                          ",
"X$##..                          ",
"X%##..                          ",
"X$##..                          ",
"Xo@@.X                          ",
"X$##..                          ",
"X%##..                          ",
"X$##..                          ",
"Xo+@..                          ",
"X$##..                          ",
"X%##.X                          ",
"X$##X.                          ",
"XO+@..                          ",
"X$##..                          ",
"X%##.X                          ",
"X$##..                          ",
"XO@@..                          ",
"X$##..                          ",
"X%##.X                          "
};
