/* XPM */
static char *_61692007770[] = {
/* columns rows colors chars-per-pixel */
"32 32 37 1 ",
"  c None",
". c #7B583D",
"X c #7C593D",
"o c #7C593E",
"O c #7D593E",
"+ c #7E5A3E",
"@ c #7F5B3F",
"# c #805B3F",
"$ c #835E42",
"% c #8A6445",
"& c #8B6545",
"* c #8B6546",
"= c #8D6647",
"- c #936A4A",
"; c #936B4A",
": c #946B4A",
"> c #956D4B",
", c #9A6F4D",
"< c #9B704E",
"1 c #9C714E",
"2 c #9C724F",
"3 c #9D724F",
"4 c #9E7350",
"5 c #9E7450",
"6 c #9F7551",
"7 c #A07652",
"8 c #A27853",
"9 c #A37954",
"0 c #A47A55",
"q c #A57B55",
"w c #A57C56",
"e c #B48158",
"r c #AEA6A5",
"t c #AFA7A6",
"y c #B0A9A8",
"u c #B3ACAB",
"i c #B4ADAC",
/* pixels */
"                                ",
"                                ",
"                                ",
"                                ",
"                                ",
"                                ",
"                                ",
"                                ",
"                                ",
"                                ",
"                                ",
"                                ",
"                                ",
"                                ",
"                                ",
"                                ",
"                                ",
"                                ",
"                                ",
"                                ",
"                                ",
"                                ",
"                                ",
"                                ",
"                                ",
"                                ",
"                                ",
"                                ",
"................................",
".@..@@..........@...@@..@@.@#@@.",
"46;,30%364%,,,,1461163%180:3w0%,",
"te%ere%eue%eye>eue;eue$eue;eue%e"
};
