/* XPM */
static char *_11692007899[] = {
/* columns rows colors chars-per-pixel */
"32 32 15 1 ",
"  c None",
". c #875739",
"X c #88593A",
"o c #8A5B3A",
"O c #93613E",
"+ c #946240",
"@ c #956340",
"# c #966340",
"$ c #986542",
"% c #9B6642",
"& c #9C6743",
"* c #A16B47",
"= c #AD754D",
"- c #C58255",
"; c #B1A5A4",
/* pixels */
"oooooooooooooooooooooooooooooooo",
"o---=-;-&-;-$-;-$-;-$-;-$-;-$-;-",
".-;=====*===*===*===&===&===*===",
".-======*===*===*===*===*===*===",
"X====XXXXXXXXXXXXXXXXXXXXXXXXXXX",
"X===o.XXXXXXXXXXXXXXXXXXXXXXXXXX",
"o-==..X                         ",
"o;==..                          ",
"o-==..                          ",
"o&**..                          ",
"o-==..                          ",
"o;==..                          ",
"o-==..                          ",
"ooo@..                          ",
"o-==..                          ",
"o;==..                          ",
"o-==..                          ",
"o@$*..                          ",
"o-==..                          ",
"o;==..                          ",
"o-==..                          ",
"o@@*..                          ",
"o-==..                          ",
"o;==..                          ",
"o-==o.                          ",
"X@O&..                          ",
"o-==..                          ",
"o;==..                          ",
"o-==..                          ",
"o@%%..                          ",
"o-==..                          ",
"o;==..                          "
};
