/* XPM */
static char *_81692007899[] = {
/* columns rows colors chars-per-pixel */
"32 32 68 1 ",
"  c None",
". c #7D5034",
"X c #805336",
"o c #875739",
"O c #885939",
"+ c #88593A",
"@ c #8A593A",
"# c #8B5A3A",
"$ c #8A5B3A",
"% c #8C5B3B",
"& c #8D5B3B",
"* c #8D5C3C",
"= c #8E5C3C",
"- c #8F5D3D",
"; c #905E3E",
": c #915F3F",
"> c #92603E",
", c #93613E",
"< c #93613F",
"1 c #956240",
"2 c #966343",
"3 c #976441",
"4 c #976442",
"5 c #986343",
"6 c #986542",
"7 c #9A6642",
"8 c #9B6642",
"9 c #9C6743",
"0 c #9D6743",
"q c #9B6946",
"w c #9E6846",
"e c #A26B47",
"r c #A56A47",
"t c #A6714B",
"y c #A9704A",
"u c #AA714B",
"i c #AB724B",
"p c #AB734C",
"a c #AC734C",
"s c #AD744D",
"d c #AD754D",
"f c #AE764E",
"g c #AF774F",
"h c #B0784F",
"j c #B07950",
"k c #B17950",
"l c #B27A51",
"z c #B37B52",
"x c #B47C52",
"c c #B47D53",
"v c #BD7D52",
"b c #BE7D52",
"n c #BE7E52",
"m c #BE7E53",
"M c #BF7E53",
"N c #BF7F53",
"B c #C07F54",
"V c #B88055",
"C c #B88156",
"Z c #B98256",
"A c #BC8559",
"S c #BE885A",
"D c #C08054",
"F c #C58E5F",
"G c #B1A5A4",
"H c #B4ABA9",
"J c #B7AEAC",
"K c #B8AFAD",
/* pixels */
"$vyyoo                          ",
"$ooooo                          ",
"$vyyoo                          ",
"$Gyyoo                          ",
"$vyyoo                          ",
"$ooooo                          ",
"$vyyoo                          ",
"$Gyyoo                          ",
"$vyyoo                          ",
"$ooooo                          ",
"$vyyoo                          ",
"$Gyyoo                          ",
"$vyyoo                          ",
"$ooooo                          ",
"$vyyoo                          ",
"$Gyyoo                          ",
"$vyyoo                          ",
"$ooooo                          ",
"$vyyoo                          ",
"$Gyyoo                          ",
"$vyyoo                          ",
"$ooooo                          ",
"$vyyoo                          ",
"$Gyyoo                          ",
"$vyyoo                          ",
"$ooooo                          ",
"$yyyooo                         ",
"$AyyXooooooooooooooooooooooooooo",
"$Syyp.oooooooooo$ooo$$oo$===--$$",
"$AAFzy3yff4yyyypafppff3phxeacz5y",
"$vGvyy>vJN>vHv9NKD8vKv;vJD8vJB,v",
"$pyy9r>fhh5fhxwZZctfgg4fzhwghh5f"
};
