/* XPM */
static char *Door___Opened__1692008152[] = {
/* columns rows colors chars-per-pixel */
"24 30 36 1 ",
"  c None",
". c black",
"X c #654129",
"o c #6B452B",
"O c #6B452C",
"+ c #78452A",
"@ c #71492E",
"# c #704A2E",
"$ c #724A2E",
"% c #7F4A2C",
"& c #764D31",
"* c #774E31",
"= c #784D31",
"- c #7E5235",
"; c #854E2F",
": c #8D5232",
"> c #855638",
", c #895A3A",
"< c #8A5B3B",
"1 c #905433",
"2 c #935634",
"3 c #9B5B37",
"4 c #915F3D",
"5 c #9C5C39",
"6 c #A05F3A",
"7 c #A5613C",
"8 c #A6623C",
"9 c #966340",
"0 c #9C6642",
"q c #A06944",
"w c #A86B48",
"e c #AD714C",
"r c #B2764F",
"t c #B77C53",
"y c #BB8056",
"u c #C08559",
/* pixels */
"                        ",
"    ----------------    ",
"   -<94qqqqqq0000904-   ",
"  -->..............<--  ",
" --<................--- ",
" --..................>- ",
" ->..................4- ",
" -<..................4- ",
" -<..................9- ",
" -4..................0- ",
" -<..................9- ",
" -4..................4- ",
" -4..................4- ",
" -4..................4- ",
" -4..................<- ",
" -4..................>- ",
" O<..................&= ",
" O&..................@& ",
" O@..................#- ",
" Oo..................@& ",
" eu..................yr ",
" wy..................tw ",
" wt..................tw ",
" OO..................OX ",
" O@..................-$ ",
" O@..................-$ ",
" o=..................-= ",
" #-..................-* ",
" &-..................-& ",
" %%%;;:1588868322;;;;%+ "
};
