/* XPM */
static char *_1692007506[] = {
/* columns rows colors chars-per-pixel */
"32 32 54 1 ",
"  c #77492D",
". c #7A4C2E",
"X c #7C4C2E",
"o c #814F30",
"O c #835131",
"+ c #865232",
"@ c #875333",
"# c #885333",
"$ c #895433",
"% c #8A5534",
"& c #8E5735",
"* c #8F5936",
"= c #905A36",
"- c #905A38",
"; c #975C3B",
": c #975D3C",
"> c #9A5F3D",
", c #9C613E",
"< c #9E623F",
"1 c #9E633F",
"2 c #9E6240",
"3 c #9F6440",
"4 c #A06440",
"5 c #A16641",
"6 c #A26642",
"7 c #A26743",
"8 c #A36743",
"9 c #A36843",
"0 c #A46843",
"q c #A56A46",
"w c #A76C47",
"e c #A86D48",
"r c #B3744D",
"t c #B3754D",
"y c #B4764E",
"u c #B5784F",
"i c #B67850",
"p c #B67950",
"a c #B87B51",
"s c #B87C52",
"d c #BA7D53",
"f c #BB7F54",
"g c #BB8055",
"h c #BD8156",
"j c #BD8457",
"k c #BF8458",
"l c #BE8558",
"z c #C08558",
"x c #C0875A",
"c c #C1885B",
"v c #B99F92",
"b c #BCA296",
"n c #BCA396",
"m c #BCA397",
/* pixels */
"xhdttyyytityyytittityyyyyyyyydha",
"*********=**=*******==&=****=***",
"**hyduwwwwpafi****kkggwwwwifkh=*",
"*dnddpdwwipifmf&*kmspsgwwpipfnd*",
"=uuadugwwiifdaf@*kpffpkwwppdapf-",
"*dddpddw8ypaaaz@*ffpfpp55tddafp=",
"*dpddud02riiiid%*ppffiu52tppfap=",
"*wuddd195>rdkkw@*wfkfd2:12riipe*",
"*ww55528588qwww@*ww85522>;qwwww&",
"*w5555858535548%*www555555wwwww*",
"=5dhdp>252tfii8%*wfzfr52w3ddkxw*",
"=yyyttrw5ripppi@*yyyyyy5wrpddpd*",
"=yppitaw5fiffdf@*ftyyyf89usdddg*",
"&dpppihw8iaffdk%&ayyyyp55usudpd*",
"=dndpiaw5fiafvf%%fvyttf55pddsmd*",
"*=dfkiwwwwipfaoooXaadt55wwusuu**",
"***%%++$%o++o%o..o%@######*==***",
"***&=+%$+%%+o@X Xoo@#######=****",
"**affdwweeixzi%@+okkxaw5wwiiaa**",
"*dmdpdd5eaidfmd&+fniapd5wiipani*",
"*gdasddw5ffdadd@%aaadai5wiapdap=",
"*haddsj54cdddad%%xaaaai5efpfiif&",
"=uaddut22fiddaa%@diaiia2wpppppa&",
"*wuput25w8iffiw+&wdiid2284aiyae=",
"*w55885888588ww%*ww55288525wwww*",
"*55w588555585ww@*wwwwq855853www*",
"*1pdfd2824adffw%*wypgp4822dfdfw*",
"=dadptpq5yiaapa=-pdpdpa55ftiipi*",
"-ffpddd52fpadid=-aafapf85fppdfi&",
"-faffpp1wfafdfi&-afpapp5wtyfdip*",
"=imaaat53tifpmi=-fnaaat3wftppmi*",
"*=iifa48qwpfff=&==xffywwwwtupt**"
};
