/* XPM */
static char *_1692007506[] = {
/* columns rows colors chars-per-pixel */
"32 32 51 1 ",
"  c #4E311F",
". c #50321F",
"X c #543621",
"o c #583722",
"O c #5B3A24",
"+ c #603D26",
"@ c #633F29",
"# c #66412A",
"$ c #6B442C",
"% c #71472E",
"& c #724A2E",
"* c #754C30",
"= c #7A4E32",
"- c #7D5034",
"; c #815437",
": c #855639",
"> c #8E5C3C",
", c #915E3D",
"< c #96613F",
"1 c #98613F",
"2 c #966341",
"3 c #9A6341",
"4 c #9F6945",
"5 c #A16643",
"6 c #A56A46",
"7 c #A86B47",
"8 c #A76C48",
"9 c #A96C49",
"0 c #AB724B",
"q c #B0774E",
"w c #B47B52",
"e c #BA8457",
"r c #BE885B",
"t c #969393",
"y c #9A9595",
"u c #9D9A9A",
"i c #A19D9D",
"p c #A5A2A2",
"a c #A9A5A5",
"s c #ADABAB",
"d c #B1A8A6",
"f c #B1AFAE",
"g c #B5B3B3",
"h c #B9B6B6",
"j c #BDBBBB",
"k c #C1BFBF",
"l c #C4C2C2",
"z c #C8C5C5",
"x c #CDCACA",
"c c #D1CECE",
"v c #D2D0D0",
/* pixels */
"0040802000400qwwww00002000400020",
"xxxjxxxxcxvkxwwerw0xxcxxxxxckxxx",
"vvvvzvvvvvlvvx>::-zvvvvvvvvvvvvv",
"cvvvvlvzvlvvvx2482zvvvvvvvvvvvvv",
"vvvvlvlvlvvvvx,282zvvvccvvvvvvvv",
"vcclvccvvlccvx,24>zccccccccvvvvc",
"xvlvcvccvlxvvx222>lccccccxccxcxv",
"xlxcxxcxxvkkvl,222lcccxcxcvxcvxk",
"lxxxxxxxxxxxkl222:lxxxxxxxxxxxkx",
"xzxxxxxxxxxxkk>222fxzxxxxxxxkkxx",
"xzxzxzxxzxzjxk>222kjxzxxxxxjxxxz",
"zzzzzzlzzzzjxj>222kzjzzzjlhzlzzl",
"llllllllllhllj>22>jllhlhlhllklll",
"kjkkkkkkkghkkg;22-gkkkgkkkkkkkkk",
"jjjjjjjjjgjggf-::-fkjjgkkjjjkjkk",
"jjjjjjgfgjjhgu=--*sjjjfhjjjjhjhj",
"hghhhshhhhhhha*=-=shhhhfhhhhhhhh",
"ggghhgsggggggi*=-*pgggsgsgsshggg",
"ssfffafgffffsi&=-*usfsfffsffsfff",
"ssssasssfsfssi%=-*usassssssssafs",
"ppspssasssassu%=:*tpsasssssssppp",
"ppipaaaapaaaat%=&&tpaaaapapapaaa",
"uiuuuuyttuuty7wwew0uuuuytuuttuii",
"48625762666267qqq082600360034002",
"4a6,5d716a716d997d7,7g936d937d9<",
"56737773797157979995699366936993",
"%@X.@%@@X ##+@555,@$$$Xo$$$$oX%$",
"$*oX=@%=oo=#@%55,7#=%*Oo*%%=Oo*%",
"*=OO=%%=Oo-$=$7577$;*=@O=*&&OO**",
"$=+O;*%=@O-&*$7771#=**+o-*&-OO**",
"$*OX=%@=oX&%%$9999#&%$XX*$$*oX*%",
"@@..@$@@X.$$##5qq1#$$%X &$$%XX##"
};
