/* XPM */
static char *_1692007609[] = {
/* columns rows colors chars-per-pixel */
"32 32 66 1 ",
"  c #3C2416",
". c #402817",
"X c #442B1A",
"o c #492D1C",
"O c #4D311E",
"+ c #50341F",
"@ c #533521",
"# c #583722",
"$ c #623F28",
"% c #66412A",
"& c #6C452C",
"* c #70472E",
"= c #734A2F",
"- c #734A30",
"; c #7A4E32",
": c #7E5135",
"> c #7E5A41",
", c #757373",
"< c #797676",
"1 c #7F7B7B",
"2 c #825436",
"3 c #8B5234",
"4 c #855638",
"5 c #8A573A",
"6 c #8B5B3A",
"7 c #945C3C",
"8 c #985C39",
"9 c #95613F",
"0 c #9A613F",
"q c #976240",
"w c #9C6441",
"e c #9F6946",
"r c #A16643",
"t c #A56946",
"y c #A66D48",
"u c #A96D49",
"i c #AC724B",
"p c #B2764E",
"a c #B4784F",
"s c #A27253",
"d c #B57950",
"f c #BA7E54",
"g c #BF8156",
"h c #BC8458",
"j c #D19D6A",
"k c #868282",
"l c #8A8585",
"z c #8D8A8A",
"x c #948F8F",
"c c #969393",
"v c #999696",
"b c #9D9A9A",
"n c #A19E9E",
"m c #A5A2A2",
"M c #AAA5A5",
"N c #ACABAB",
"B c #B2AEAE",
"V c #B5B3B3",
"C c #B9B6B6",
"Z c #BDBBBB",
"A c #C1BEBE",
"S c #C5C3C3",
"D c #C9C6C6",
"F c #CDCACA",
"G c #D1CECE",
"H c #D2D0D0",
/* pixels */
"FFFZFFFFFFHSFZANSZZVNVVVVmqeshjh",
"HHHHSHHHHHDHHDVDASASZBZAVNm444q6",
"HHHHHSHDHSHHHZDDDSSSSZVZNCz44qe6",
"HHGHSHSHSHHHHAFFFFDDDSSVNmb:wiy6",
"HGHSHHHHGSGGHAFFFFDDSSCAVVb4ysa6",
"GGSHHFHFGAGGHFAFFDDDSSVZVVv2yda6",
"FSHFFFFGGGSAGFAFDSDSVVAZBBc4yda6",
"AFGFFFFFFFFFAAGDDDSCSZZCNNx4taa6",
"FFFFFFDFFFFFAZFDSSAVZZZVNNc4taa6",
"DDDDDDDDDDDZFDVFDAAZVZVVNNz2eaa6",
"DSDDSSSSSDDZDSSVSZZZNZVVmml2epa6",
"SSSSSSSSSSCSSAAZVVZZVNNmvcl4epy6",
"AAAAAAAASCCASZZZZNZVVNmmbch4way6",
"ZZAZZZZZCVZCCCZCVNZNNNmnccz:wiy6",
"CCZCCCVNVCZCBCVVVVbmNNNbbbl:0it6",
"CCCCVNCCCCCCCVVVVNVNNNmmnb1:6yw6",
"VVCVVVNVVVVVVBBBNNmNNMmnbc1>>qq>",
"BNNNNmNNBBBBNBNNNmmmnnnbvc,>&9e6",
"NNNNmMNNNNNNNNNMmmmmnnnvcx<>:qq6",
"mmNmMmMMNNMNNMMmnnmmnbvvcxh-5496",
"mmnmmmnmmMMMMmnmmmbbbbvvc,s2::54",
"bbnbvvxcvvbcvvvvccczzlllk,s89dff",
"eiiyedftwust0ifdssytqyyt6sur0tsd",
"9pBtwdBtwuBt0uAussMtqtMr7sMr7tMd",
"wutw0uut0rrurutrupuurtruwtutwttd",
"&&.X%&&&oo$*$$  $$$$o+$*$$37t7rd",
";-@O&;--X@;-;$X.-$;2@@2;2$7rurug",
";&O@$*=*X+2-2*XX3$-:@@3-:$5rutug",
";=@@=*&=@@2-;-oo:$-2##3$2$wwpriu",
";;##;;&;+#*-2;oo;$$3##3$;$rruuup",
"&&++&&$&X+&&-&XX*$$-@+$$$$78rr7u",
"8888888888888888888038r888888888"
};
