/* XPM */
static char *_1692007609[] = {
/* columns rows colors chars-per-pixel */
"32 32 67 1 ",
"  c #3C2416",
". c #402817",
"X c #442B1A",
"o c #492D1C",
"O c #4D311E",
"+ c #50341F",
"@ c #583722",
"# c #5E3B26",
"$ c #623F26",
"% c #623F28",
"& c #66412A",
"* c #6C452C",
"= c #70472E",
"- c #734A2F",
"; c #7A4E32",
": c #7E5135",
"> c #7E5A41",
", c #757373",
"< c #797676",
"1 c #7E7A7A",
"2 c #825436",
"3 c #8B5234",
"4 c #855638",
"5 c #8A573A",
"6 c #8B5B3A",
"7 c #945C3C",
"8 c #985C39",
"9 c #95613F",
"0 c #9A613F",
"q c #976240",
"w c #9C6441",
"e c #9F6946",
"r c #A16643",
"t c #A56946",
"y c #A66D48",
"u c #A96D49",
"i c #AC724B",
"p c #B2764E",
"a c #B4784F",
"s c #A27253",
"d c #B57950",
"f c #BA7E54",
"g c #BF8156",
"h c #BC8458",
"j c #D19D6A",
"k c #858383",
"l c #8A8585",
"z c #8D8A8A",
"x c #938F8F",
"c c #969292",
"v c #9A9696",
"b c #9D9B9B",
"n c #A19E9E",
"m c #A4A2A2",
"M c #A9A5A5",
"N c #ACABAB",
"B c #B2AFAE",
"V c #B8B0AE",
"C c #B5B3B3",
"Z c #B9B6B6",
"A c #BDBBBB",
"S c #C1BEBE",
"D c #C5C3C3",
"F c #C9C6C6",
"G c #CDCBCB",
"H c #D1CECE",
"J c #D2D0D0",
/* pixels */
"hjhsq0mCCCCNCAADNAAACCCADDFAADFG",
"69455nBCDABADADSDCFDFDHFHGHGFGGG",
"6tq55zZNSCADDDFFFGAFGGGHHHHJJJJJ",
"6yiq4vmNCADFFFGGGHAHHHHJHHJJJJJJ",
"6die2bCCSZDDFFFGGGAHHHHHJHJJJJJH",
"6ddy4vCCSCDDFFFGHAHHGHHHGHHJGJJG",
"6pdy4cBBAACCDFFFGAGGHGGHHGHGHHGS",
"6ddt4xNBZASDCDFFFHAGGGGGGGGGGGSG",
"6dae4cNNCZASCDDDDHAGHFFGGGGGSSGG",
"6ppe4zMNCCZCASDDGCFAHFGFFFFAFFFF",
"6ape4lmMCCZCAASSCDFDCAFFADADDFFF",
"6ype:1xcmBNCZABCAAADDCDZDADDDDSD",
"6ipw41ccnMNCCANAAAAAADNDDSDASSSS",
"6yie:zxcnmNNNZNZAAAAAANAAAAAAAAS",
"6tiw:kbbnNNNMnCCCACCAZBAAAAAAAAA",
"60t6:1nnmmMNNNNCCCCCZCZNZZACCCCC",
"6qq:>scbnmmMNmNBNCCNCCNCNCNNCCCC",
"6eq:><vvbnmmmMMNNNNNBMBBBNNBNNNC",
"6q9:>,xvvbnmnmmMMNNNmNNNNNNNNmNN",
"594>>1xxvbbbnnnnMMMmMMNNNNNNNmnm",
"55:::1,ccvbbbnnmnnmnmmmMMMMMmmmM",
"hfa98t,kllzzxcxnnnbbbbbvvbnvvvnn",
"att9ttt0rutqruiphhy9tii0yha0eaa0",
"aMt7tMt0tMtqrMuusCi9tVy9rBh0tBa9",
"aturtuurutt0tuutruu0tur0tyu00tu0",
"dr8r73%%**oO*=*$. &=*&oo&=*&o.*=",
"girir5%2::++2;*=..&--;+o--;=++=:",
"girur7%;-3++2=&;..=2-2+O=-=&++*;",
"iururw%;&4+#;*&;oo-;-2++-*=-++;;",
"puuurr%;&4#+2*=;oo;2-=++;*;;@@;;",
"u8rr88%%**O+=&&=X.*-**Oo&&**OO=*",
"88888888888388888888888880888888"
};
