/* XPM */
static char *monster_snake1692710701[] = {
/* columns rows colors chars-per-pixel */
"32 32 7 1 ",
"  c None",
". c black",
"X c #239063",
"o c #FFFF37",
"O c #00D885",
"+ c #FECD8E",
"@ c white",
/* pixels */
"           .....                ",
"         ..OOOOO..              ",
"       ..ooOOOOOOO..            ",
"      .oo+oOO@@@@OOO..          ",
"      .oooOOO@@@@OOOO.          ",
"     .+++OOOOOOOOOOOOO.         ",
"    .ooooOOOOO.........         ",
"    .++++OOOOOOOOOOO..          ",
"    .ooooOOOOOOOOO..            ",
"     .++++OOOOOOO.              ",
"      ..oooOOOOOO.              ",
"        ...oOOOOOO.             ",
"           .OOOOOO.             ",
"            .OOOOOO.            ",
"             ..OOOOO.           ",
"               .OOOOO.          ",
"                .OOOOO.         ",
"                .OOOOO.         ",
"                 .OOOOO.        ",
"                 .OOOOO.      . ",
"                  .OOOOO.    .O.",
"                  .XXXXX.   .OO.",
"     ..................... .OOO.",
"    .OOOOOOOOOOOOOOOOOOOOO.XOOO.",
"    .OOOOOOOOOOOOOOOOOOOOO.XOOO.",
"    .XXXXXXXXXXXXXXXXXXXXX.XOOO.",
"   .........................XOO.",
"  .OOOOOOOOOOOOOOOOOOOOOOOOO.XO.",
"  .OOOOOOOOOOOOOOOOOOOOOOOOO.X. ",
"  .OOOOOOOOOOOOOOOOOOOOOOOOO..  ",
"  .OOOOOOOOOOOOOOOOOOOOOOOOO.   ",
"   .XXXXXXXXXXXXXXXXXXXXXXX.    "
};
