/* XPM */
static char *ezgif_com_crop1692624780[] = {
/* columns rows colors chars-per-pixel */
"32 32 13 1 ",
"  c None",
". c #4B2630",
"X c #592634",
"o c #4B3D44",
"O c #693141",
"+ c #774251",
"@ c #615250",
"# c #746461",
"$ c #8C7C79",
"% c #A49297",
"& c #AC999F",
"* c #BAAAAF",
"= c #CDC2C5",
/* pixels */
"                                ",
"                                ",
"                                ",
"                                ",
"                                ",
"                                ",
"                                ",
"                                ",
"                                ",
"                                ",
"                                ",
"                                ",
"                                ",
"                                ",
"                                ",
"                                ",
"oo                              ",
"o$o                             ",
"o$o                             ",
"o$o                             ",
"o$o%%%%%                        ",
"o$o==*&&%                       ",
"o$o===*&%                       ",
"o#o%%%........................  ",
"o#o==.+++++++++++++++++OOOXXXX. ",
"o#o=.+++++++++++++++++++++OOXXX.",
"o#o=.OOOOOOOOOOOOOOOOOOOOOXXXXX.",
"o#o=............................",
"o@o%*******&&&&&&%%%%%%%%%%%%%%o",
"o@oooooooooooooooooooooooooooooo",
"o@o                         o@o ",
"o@o                         o#o "
};
