/* XPM */
static char *_1692623705[] = {
/* columns rows colors chars-per-pixel */
"32 32 74 1 ",
"  c #7E4D2F",
". c #824B2D",
"X c #834C2E",
"o c #854E2F",
"O c #864F30",
"+ c #884F30",
"@ c #815030",
"# c #865232",
"$ c #8D5333",
"% c #8A5534",
"& c #8F5534",
"* c #8F5936",
"= c #955235",
"- c #915534",
"; c #915735",
": c #985437",
"> c #975B37",
", c #9A5739",
"< c #9C5538",
"1 c #9D5738",
"2 c #9D5739",
"3 c #9F593A",
"4 c #9C5A3A",
"5 c #9D5B3B",
"6 c #9E5A3A",
"7 c #9E5C3C",
"8 c #9F5D3C",
"9 c #A05A3A",
"0 c #A05C3B",
"q c #A15C3C",
"w c #A25E3D",
"e c #A45F3D",
"r c #9F613C",
"t c #A4603E",
"y c #A6613F",
"u c #A66240",
"i c #A76340",
"p c #A76341",
"a c #A76441",
"s c #A96643",
"d c #AA6642",
"f c #AA6643",
"g c #AA6743",
"h c #AB6944",
"j c #AB6845",
"k c #AC6A46",
"l c #AD6A47",
"z c #AD6B47",
"x c #AE6B47",
"c c #AE6C48",
"v c #AF6D48",
"b c #B06E49",
"n c #AF704A",
"m c #B0714A",
"M c #B3714B",
"N c #B1724C",
"B c #B2744C",
"V c #B3744D",
"C c #B5744D",
"Z c #B5774F",
"A c #B5784F",
"S c #B67950",
"D c #B77A51",
"F c #B97950",
"G c #B87A51",
"H c #B87C52",
"J c #B97C53",
"K c #BB7F54",
"L c #BC7F55",
"P c #BC8055",
"I c #BC8357",
"U c #BE8357",
"Y c #BF8659",
"T c #C08559",
/* pixels */
"XXXX##..Xo##+->rr&%-&&-;&&&%$%%;",
"DDHPKPY*VVmmmbCAADDGPPHPKHK*NCCC",
"cmVVAHH;gjggzgzccznBmCCmNNC*gzbb",
"ypgjjcN%ww661969yyygggjcggj*weyy",
"*;*****#%%%%%%%#####%%%%;;*&;***",
"PH*NVVAHDDDPITIPP*VVAAHHPHPYIGTI",
"HD*zzjznnnmnCCCDP;cccjccnnnmmnCG",
"nc*yyywyyyggcczzm;pyyyagagpagpcb",
"**%%%%%%%#%%%%%%#%%%%%%;********",
"DDHPTTTII%CCCDDHGHGITYIIPY*NNZND",
"czccmmBnP%ggjjccbbnCCVVmVH;zgzcm",
"apgggcjzz%:6tpaaagajjccjzn*apppg",
"*%%#X %%#@****%%#X@@%%;**;**&***",
"HHIHP%ccCCAADHPPIPY%nVHPJPAHDDDD",
"nNVnH%y5agzcccVBVmG%ggjjncccccnV",
"gjczc%w4wwtwyyajggz*ywtyagaaaajj",
"***%%#*****;********;;*;**;**;**",
"ADADDDKKH*jccVAPHHPHHHIIIYI*HHHH",
"cncncnNCH*ppajcccccccBCBVAH*cccn",
"wywppagzc*w6675w67ygygcccjg;y5ty",
"**%%-%%%##@@@@O#%%#&%%%%%%%*****",
"K*NnbmDDHHHHGL cnnCCAAAFHPPPPIPH",
"G*ayigccbbcbbb#igyhzgzgcgccncnmC",
"z*9666wwayygig#11:9909095tttyyyg",
";**%%%%%%######################%",
"DDHHH*NCCCHPPYPHPHIYIIH*vmCCPHCF",
"zcnNV*aggczzczzzcznCCCD*hgghzzcm",
"wyaaa;,6906yeeeey0tygcc*y5tyygyg",
"%%%%%%%%%%%%%%@oO  @%%%%%%%%%%;*",
"DH;mnnmNVCHHDDHIP%CFVCHAVDVHCCHP",
"Nc*pggjygczczjccV;gyagjzjcjjjjgn",
"ag-9699609605wyag#-::6565wwwwtaa"
};
