/* XPM */
static char *_981e3fffaa940a293ffeff346bb85eflRLXVrq3FqHzq7Gc[] = {
/* columns rows colors chars-per-pixel */
"50 50 214 2 ",
"   c #C3164B",
".  c #C7265C",
"X  c #CD2B65",
"o  c #CE2F69",
"O  c #CF336D",
"+  c #D0356F",
"@  c #D33C74",
"#  c #F03B7E",
"$  c #CD477A",
"%  c #CF497C",
"&  c #CE4477",
"*  c #D4437B",
"=  c #D24A7D",
"-  c #D04377",
";  c #CD577A",
":  c #C84869",
">  c #F53E84",
",  c #D34D83",
"<  c #D94E86",
"1  c #D64F89",
"2  c #DC4E8A",
"3  c #CF5C81",
"4  c #D25285",
"5  c #D5558C",
"6  c #D8568E",
"7  c #D55A8D",
"8  c #D8598E",
"9  c #DF5384",
"0  c #D75790",
"q  c #DE5794",
"w  c #D65D91",
"e  c #DA5C93",
"r  c #DF5A99",
"t  c #EE4A87",
"y  c #F24486",
"u  c #F04885",
"i  c #F44689",
"p  c #F34F8D",
"a  c #EF508A",
"s  c #EB5B8E",
"d  c #E3558C",
"f  c #F1518D",
"g  c #E05C96",
"h  c #E25D9A",
"j  c #F55C9A",
"k  c #F45895",
"l  c #D16386",
"z  c #DF668F",
"x  c #D36B8E",
"c  c #D66193",
"v  c #D96295",
"b  c #D46A94",
"n  c #DA6A95",
"m  c #DC6599",
"M  c #D76C98",
"N  c #DA6B9A",
"B  c #D47395",
"V  c #DE7397",
"C  c #DC7199",
"Z  c #D27B9A",
"A  c #DB7A9C",
"S  c #D27498",
"D  c #E56693",
"F  c #E36B95",
"G  c #E1639C",
"H  c #ED6F9F",
"J  c #F0629A",
"K  c #E07196",
"L  c #E27A9D",
"P  c #E6799C",
"I  c #DE73A1",
"U  c #E66CA5",
"Y  c #EB6BA6",
"T  c #E76DA8",
"R  c #ED67A6",
"E  c #FA6EAD",
"W  c #EE79A6",
"Q  c #EC74AC",
"!  c #ED7CAA",
"~  c #E57AA8",
"^  c #F07DAB",
"/  c #F171AC",
"(  c #F57AB6",
")  c #F97FB6",
"_  c #F67EBB",
"`  c #F97EBB",
"'  c #F474B1",
"]  c #D3829F",
"[  c #D8859F",
"{  c #D386A3",
"}  c #DD85A4",
"|  c #D48BA5",
" . c #DA89A4",
".. c #DA8DAA",
"X. c #D48EA8",
"o. c #CB94A9",
"O. c #CC9BAE",
"+. c #D395AC",
"@. c #DB92AD",
"#. c #D298AE",
"$. c #CE9DB0",
"%. c #D99DB4",
"&. c #D999B2",
"*. c #E484A3",
"=. c #E487AB",
"-. c #EB85AC",
";. c #E788AA",
":. c #E98AAD",
">. c #EA82A7",
",. c #E491AD",
"<. c #EF83B6",
"1. c #EC8DB4",
"2. c #E28AB0",
"3. c #F684BD",
"4. c #F982BD",
"5. c #F389BD",
"6. c #F58DB8",
"7. c #E593B1",
"8. c #EC91B5",
"9. c #E49AB6",
"0. c #ED98B7",
"q. c #ED95BC",
"w. c #EB9DBB",
"e. c #E59AB8",
"r. c #CFA3B4",
"t. c #D1A4B6",
"y. c #D4A6B8",
"u. c #DCA7BA",
"i. c #D4AABB",
"p. c #D9ACBE",
"a. c #DBA1B7",
"s. c #D4B1BF",
"d. c #E3A4BB",
"f. c #ECA2BC",
"g. c #E3AABF",
"h. c #F785C1",
"j. c #F985C1",
"k. c #F68CC3",
"l. c #F98AC4",
"z. c #FB8EC8",
"x. c #EE9FC6",
"c. c #ED96C0",
"v. c #F592C4",
"b. c #F891C6",
"n. c #F49DC5",
"m. c #F994CA",
"M. c #F79CC9",
"N. c #F898C8",
"B. c #DCAFC0",
"V. c #D7B2C0",
"C. c #DCB2C3",
"Z. c #DFBDCA",
"A. c #ECA3C6",
"S. c #E4ACC2",
"D. c #EAACC4",
"F. c #EEAACB",
"G. c #EBA4C5",
"H. c #F4A4CB",
"J. c #F1A8C7",
"K. c #E3B4C6",
"L. c #E4B6C8",
"P. c #EBB4CB",
"I. c #E2BCCB",
"U. c #EEBACD",
"Y. c #ECB1C7",
"T. c #F1B1CC",
"R. c #F9AED5",
"E. c #F7ABD2",
"W. c #EFBDD1",
"Q. c #F9B1D7",
"!. c #F3BDD3",
"~. c #F7B9D9",
"^. c #E3C1CE",
"/. c #E5C5D2",
"(. c #ECC4D4",
"). c #E4CAD5",
"_. c #EACCD6",
"`. c #E7CDD8",
"'. c #EDCCDA",
"]. c #F0C5D6",
"[. c #F4C6DB",
"{. c #F1CCDB",
"}. c #ECD3DD",
"|. c #EAD9DF",
" X c #F2D2DF",
".X c #F8CDE1",
"XX c #EFDEE6",
"oX c #F4D6E3",
"OX c #F3DCE5",
"+X c #F6DEE9",
"@X c #F9DCE9",
"#X c #EDE2E6",
"$X c #F3E6EA",
"%X c #F5E3EB",
"&X c #FAE6EF",
"*X c #F4EAEE",
"=X c #F7EEF1",
"-X c #F9EDF3",
";X c #FBEDF3",
":X c #F6F1F4",
">X c #F9F2F5",
",X c #FAF2F5",
"<X c #FDF6FA",
"1X c #FDFAFB",
"2X c #FDFDFD",
"3X c #FFFFFD",
"4X c #FFFDFE",
"5X c #FDFFFE",
"6X c #FEFEFE",
"7X c #FFFEFF",
"8X c #FEFFFF",
"9X c white",
"0X c #FEFCFD",
"qX c #FFFFFF",
/* pixels */
"9X9X9X9X9X9X9X9X9X9X9X9X9X9X9X9X9X9X9X9X9X9X9X9X9X9X9X9X9X2X9X9X9X9X9X9X9X9X9X9X9X9X9X9X9X9X9X9X9X9X",
"9X9X9X9X9X9X9X9X9X9X9X9X9X9X9X9X9X9X9X9X9X9X2X9X9X9X9X9X9X9X9X9X9X9X9X9X9X9X2X9X9X9X9X9X9X9X9X9X9X9X",
"9X9X9X9X9X9X9X9X9X9X9X9X9X9X9X9X2X9X9X9X9X9X9X9X9X9X9X9X2X9X9X9X9X9X9X9X9X9X2X9X9X9X9X9X9X9X9X9X9X9X",
"9X9X9X9X9X9X9X9X9X2X9X9X9X9X2X9X9X9X9X9X9X9X9X9X9X9X9X9X9X9X2X9X9X9X9X2X9X9X9X9X9X9X9X9X9X9X9X9X9X9X",
"9X9X9X9X9X9X9X9X9X9X9X9X9X9X9X9X9X9X9X9X2X9X9X9X9X9X9X9X2X2X9X9X9X9X9X9X9X9X9X9X9X9X9X9X9X9X9X9X9X9X",
"9X9X9X9X9X9X9X9X9X9X9X9X9X1X9X9X9X9X1X9X9X9X9X9X9X9X=X*X$X*X=X>X1X9X9X9X9X9X9X1X9X9X9X9X9X9X9X9X9X9X",
"9X9X9X9X9X9X9X9X9X9X9X9X9X9X9X#X).Z.I./.OX9X9X9X9X`.O.$.$.t.y.S./.{.>X1X9X9X9X9X9X9X9X9X9X9X9X9X9X9X",
"9X9X9X9X9X9X9X9X9X9X9X9X9X:Xu.A X.C.C.p.i./.$X*X1XZ.B.K.C.B.C.^.K.u.I.^._.:X9X9X9X9X9X9X9X9X9X9X9X9X",
"9X9X9X9X9X9X9X9X9X9X9X9X1Xg.K D [ t.i.t.i.y.y.i.^.K.P.I.L.K.@.A  ./.oX_.(.(.>X9X9X9X9X9X9X2X9X9X9X9X",
"9X9X9X9X9X9X9X9X9X9X9X9X>X7.*.A i.I.I.I.K.C.C.I.{.;.K.L.L.@.d n L *.%XoX_.^.XX9X2X2X9X9X9X9X9X9X9X9X",
"9X9X9X9X9X9X9X9X9X9X9X9X>Xd.8.[ i.C.C.C.C.C.p.C.D.-.D.S.g.V z [ ;.7.L.oX(.I. X9X2X9X9X9X9X9X9X9X9X9X",
"9X9X9X9X9X9X9X9X9X9X9X1X1X(.f. .i.i.t.t.t.r.O.O.7.1.D.g.d.K K ,.f.oX(.^.^.L.OX9X2X9X9X9X9X9X9X9X9X9X",
"9X9X9X9X9X9X9X9X9X9X9X9X9X-X].9.%.V.i.t.t.O.o.O.:.1.D.g.,.P L f.!.1X'.^.I.I.1X9X9X9X9X9X9X9X9X9X9X9X",
"9X9X9X9X9X9X9X9X9X9X9X).|.9X>XU.9.7.a.u.p.u.u.u.-.8.S.g.7.L :.U.=X1XY.P.T.=X9X9X2X2X9X9X9X9X9X9X9X9X",
"9X9X9X9X9X9X9X9X9X1X9X|.o. X=X^.+.B V }  .} ..;.-.6.U.P.P.T.(.(.}.!.8.P.;X9X9X9X9X9X9X9X9X9X9X9X9X9X",
"9X9X9X9X9X9X9X9X9X9X9X9X9.d  .|  . .A n K F D D >.G.w.>.>.^ ^ >.1.6.! <.5.5.v.M.E.~.&X9X2X9X9X9X9X9X",
"9X9X9X9X9X9X9X9X9X@XT.Q 2 p y a f s F L *.L L *.*.P s u u y p j ^ 0.f.D.Y.D.D.k.h._ Q.9X2X9X9X2X9X9X",
"9X9X9X9X9X9X9X>X~ h h h T T R R :.p.p.g.S.S.Y.n.6.J i > > i j E _ 4.6.) D._./.H.b.l.R.9X2X9X9X9X9X9X",
"9X9X9X9X9X2X9XOX7 w c c e v b w #.s.i.i.i.s.1.Y / ' / ' ( ` ` l.m.m.m.z.8./.I.A.l.h.R.9X9X9X9X9X9X9X",
"9X9X9X9X9X2X9X+X7 7 7 w 7 w 7 4 #.i.t.t.t.t.N 6 e v v v m G G ) N.z.z.l.q.^.^.A.j.3.R.9X2X9X9X2X9X9X",
"9X9X9X9X9X9X9X+X7 7 7 7 7 7 7 4 #.i.r.i.t.i.n 5 7 6 8 0 0 w 5 U b.l.z.j.q.^.^.A.l.j.Q.9X9X9X9X9X9X9X",
"9X9X9X9X9X9X9X+X7 7 7 7 7 7 3 4 #.i.r.t.r.r.c 5 8 7 5 7 8 0 5 T z.k.k.l.q.^.^.x.h.4.Q.9X9X9X9X9X9X9X",
"9X2X9X9X9X2X2X$Xc 7 7 7 7 7 7 4 #.i.r.t.r.t.b 5 7 5 5 7 5 0 2 T b.k.z.h.q.^./.x.h.( ~.9X2X9X9X9X9X9X",
"9X9X9X9X9X2X2X$Xc 7 7 7 7 7 7 4 #.t.r.t.t.t.n 5 7 5 0 5 7 5 1 U z.k.k.h.e.^.I.A.k.Q.;X9X9X9X9X9X9X9X",
"9X2X9X9X2X9X9X-Xc 5 w 8 c 7 7 4 O.i.r.t.t.r.M 1 5 5 5 5 5 0 1 T b.k.k.l.w.I.I.c.3.1X9X9X9X9X9X9X9X9X",
"9X9X9X9X9X9X9X9X%Xe.4 8 7 7 7 5 +.i.t.t.$.t.M 0 7 5 7 5 4 4 , U b.k.k.( 7./.I.c.h.<X9X9X9X9X9X9X9X9X",
"9X9X9X9X9X9X9X2X9X(.% , % = = - +.i.r.t.y.y.3 $ 7 7 7 8 7 w 1 U v.5._ # =./.I.v.k.<X9X2X9X9X1X9X9X9X",
"9X9X9X9X9X9X9X2X9XW.4 w 4 5 ; $ o.i.r.y.r.i.:   & * * = = , < T ( _ 4.> 7./.I.v.v.<X9X9X9X1X9X9X9X9X",
"9X9X9X9X9X9X9X1X9X(.4 w 7 5 4 $ | s.r.t.r.i.; . , 4 , , , , 2 _ j.j.j.y e./.I.z.b.1X9X9X9X9X9X9X9X9X",
"9X9X9X9X9X9X9X2X9X].4 w 7 7 4 $ | i.t.t.r.i.3 X 4 1 5 5 5 5 g 5.k.l.j.i d./.I.k.v.1X9X9X9X9X9X9X9X9X",
"9X9X9X9X9X9X9X9X2X(.3 7 7 7 5 $ { V.t.i.y.s.3 X 4 5 5 5 5 5 q 3.k.k.k.i G./.I.k.v.1X9X9X9X9X9X9X9X9X",
"9X9X9X9X9X9X9X1X2X/.7 7 7 7 5 $ { V.t.i.y.V.l o 5 0 6 5 5 5 r k.k.k.j.p L./.P.h.v.1X9X9X9X9X9X9X9X9X",
"9X9X9X9X9X9X9X2X9X(.5 w 7 7 7 $ ] V.t.i.t.s.x O 7 4 0 5 6 5 g k.k.k.j.f I./.P.h.m.1X9X9X9X2X9X9X9X9X",
"9X9X9X9X9X9X9X2X9X{.7 w 7 7 7 % Z V.i.y.y.s.B O 7 7 5 5 5 5 g k.j.k.j.k I./.P.h.N.9X9X9X9X9X9X9X9X9X",
"9X9X9X9X9X9X9X2X9X{.7 w 7 7 7 % Z B.p.i.i.i.S O 5 5 0 6 6 5 e k.l.l.4.J /./.F.4.n.2X9X9X9X9X9X9X9X9X",
"9X9X9X9X9X9X9X2X9X{.7 w 7 7 7 4 S C.y.i.y.V.Z @ 0 6 0 5 5 5 r k.l.l.4.Y /./.F.h.H.9X9X9X9X9X9X9X9X9X",
"9X9X9X9X9X9X9X2X9X{.w w c 7 c 4 B V.i.i.u.s.[ @ 0 8 6 6 5 6 g k.k.b.` W )./.H.h.H.9X9X2X9X9X9X9X9X9X",
"9X9X9X9X9X9X9X2X9XoX7 w 7 7 7 4 B s.p.i.i.s.{ * 8 6 0 5 0 5 r k.l.v.` -.)./.x.k.H.9X9X9X9X9X9X9X9X9X",
"9X9X9X9X9X9X9X2X9XoXw v w w w 4 c V.i.p.p.V.X.* 8 8 5 6 6 5 g k.k.v.` 1.)./.M.5.~.9X9X9X9X9X9X9X9X9X",
"9X9X9X9X9X9X9X2X9X+Xc v c c w 7 b B.B.p.i.V.+., 8 7 0 8 6 0 h h.v.v.` w.`.(.H..X1X9X9X9X9X9X9X9X9X9X",
"9X9X9X9X9X9X9X9X9X%Xw 5 5 0 7 4 c V.p.p.B.V.&.< 0 e 0 8 0 5 g k.k.N.3.G././.>X9X9X9X9X9X9X9X9X9X9X9X",
"9X9X9X9X9X9X9X9X9X9X+XW.D.e.2.I M B.V.p.B.V.%.6 w w w w e 5 G k.v.v.^ S.}.*X9X2X9X9X9X9X9X9X9X9X9X9X",
"9X9X9X9X9X9X9X9X9X9X9X9X9X9X9X2X=XZ.C.B.i.i.%.e N m 8 7 5 5 q 5.H.[.U.%X9X9X9X9X9X9X9X9X9X9X9X9X9X9X",
"9X9X9X9X9X9X9X9X9X9X9X9X2X2X2X9X9X2X<X=X*XXXoXOX,X&XoX[.P.G.w..X1X9X9X9X9X9X9X9X9X9X9X9X9X9X9X9X9X9X",
"9X9X9X9X9X9X9X9X9X9X9X9X9X9X9X9X2X9X9X9X9X9X9X9X9X9X9X9X9X9X9X9X9X9X1X9X9X9X9X9X9X9X9X9X9X9X9X9X9X9X",
"9X9X9X9X9X9X9X9X9X9X9X2X9X9X9X9X9X9X9X2X9X2X9X9X9X9X1X9X2X2X2X9X9X9X9X9X9X9X9X9X9X9X9X9X9X9X9X9X9X9X",
"9X9X9X9X9X9X9X9X9X9X9X9X9X9X9X9X9X9X9X9X9X9X9X9X9X9X9X9X9X9X9X9X9X9X9X9X9X9X9X9X9X9X9X9X9X9X9X9X9X9X",
"9X9X9X9X9X9X9X9X9X9X9X9X9X9X9X9X9X9X9X9X9X9X9X9X9X9X9X9X9X9X9X2X9X9X9X9X9X9X9X9X9X9X9X9X9X9X9X9X9X9X",
"9X9X9X9X9X9X9X9X9X9X9X9X9X9X9X9X9X9X9X9X9X9X9X9X9X9X9X9X9X9X9X9X9X9X9X9X9X9X9X9X9X9X9X9X9X9X9X9X9X9X",
"9X9X9X9X9X9X9X9X9X9X9X9X9X9X9X9X9X9X9X9X9X9X9X9X9X9X9X9X9X9X9X9X9X9X9X9X9X9X9X9X9X9X9X9X9X9X9X9X9X9X"
};
