/* XPM */
static char *tile1071692695664[] = {
/* columns rows colors chars-per-pixel */
"32 32 6 1 ",
"  c None",
". c #383530",
"X c #5B5848",
"o c #DCA05D",
"O c #B1AE9B",
"+ c #C2BFAE",
/* pixels */
"                                ",
"                                ",
"                                ",
"                                ",
"                                ",
"                                ",
"                                ",
"                                ",
"                                ",
"                                ",
"                                ",
"                                ",
"                                ",
"                                ",
"                                ",
"                                ",
"                                ",
"                                ",
"                                ",
"                                ",
"                      .     .   ",
"                     .O.   .O.  ",
"                     .oO. .Oo.  ",
"                     .OOO.OOO.  ",
"   ..         ..... .OOOOOOOOO. ",
"  .+O..      .OO+++..OOOOOOOOO. ",
"   ..OO.    .OO+++++.O.OOOO.OO. ",
"     .O.   .++++++++.OOOOOOOO.. ",
"     .O.  .++XX++++++.+++OOO.   ",
"     .OO..+++++X+++++++++++.    ",
"      .O+++++++X++++++++++.     ",
"       ..+++++++X++++++X+X.     "
};
