/* XPM */
static char *tile0481692622642[] = {
/* columns rows colors chars-per-pixel */
"32 32 7 1 ",
"  c #A24C21",
". c #E0721E",
"X c #EB9448",
"o c #672E19",
"O c #F2B26D",
"+ c #431911",
"@ c white",
/* pixels */
" ......XXXX.XXXX.XXXX.XXXX.XXX.o",
". .....XXXX.XXXX.XXXX.XXXX.OX.o ",
"O. ....OXXX.OXXX.OXXX.OXXX.O.o X",
"XO. ....OO...OO...OO...OO...o X.",
"XXO. ......................o X..",
"..... .O.XXXX......XXXX.X.o X...",
"XXO... ..XXXX......XXXX..o      ",
"XXXO.O. .OXXX......OXXX.o X  X..",
"XXXO.... .OO........OO.o    X...",
"XXX..XXO. ............o     X...",
".....XXXO. .OXXXXXXX.o       ...",
"XXO..XXXO.. .OXXXXX.o           ",
"XXXO.XXX..O. .OXXX.o X       X..",
"XXXO......XO. .OO.o X.      X...",
"XXX..XXO..XXO. ..o X..  X.. X...",
".....XXXO.XXXO.++ X... X...  ...",
".....XXXO.XXXO.++ X... X...     ",
".....XXX..XXX.o  o ...  ...  X..",
"..........XX.o XX o ..      X...",
"..........X.o X... o .  X.. X...",
"...........o X..... o  X...  ...",
"XXO.......o X....... o X...     ",
"XXXO.....o            o ...     ",
"XXXO....o XX   XX      o        ",
"XXX..X.o X... X...      o .     ",
"......o  .... ....       o      ",
"XOOO.o X .... ....      . o     ",
"XXX.o                      o XX.",
"XX.o   XX        XX   XX  X o ..",
"X.o X X...      X... X... X. o .",
".o X. ....      .... .... X.. o ",
"o X.. ....      .... .... .... o"
};
