/* XPM */
static char *cat_walk_61691848193[] = {
/* columns rows colors chars-per-pixel */
"24 20 4 1 ",
"  c None",
". c #2F2F2E",
"X c gray71",
"o c gray88",
/* pixels */
"                        ",
"                        ",
"                        ",
"                        ",
"                        ",
"                        ",
"             .. ..      ",
"            .X..X.      ",
"    ..     .Xooo.       ",
"   .oo.    .Xo.XX.      ",
"    ..o.   .Xoooo.      ",
"     .o.....XXXXX.      ",
"      .ooooooooo.       ",
"      .ooooooooo.       ",
"      .o.ooo.oXXo.      ",
"     .X.....o...o.      ",
"     ..    ..   .       ",
"                        ",
"                        ",
"                        "
};
