/* XPM */
static char *cat_walk_41691848192[] = {
/* columns rows colors chars-per-pixel */
"21 21 4 1 ",
"  c None",
". c #2F2F2E",
"X c gray71",
"o c gray88",
/* pixels */
"                     ",
"                     ",
"                     ",
"                     ",
"             .. ..   ",
"            .X..X.   ",
"           .Xooo.    ",
"           .Xo.XX.   ",
"    ...    .Xoooo.   ",
"   .ooo.....XXXXX.   ",
"  .oo..ooooooooo.    ",
"  ... .ooooooooo.    ",
"      .oo.oo.o..     ",
"     .X.X.....o.     ",
"     .. ..    ..     ",
"                     ",
"                     ",
"                     ",
"                     ",
"                     ",
"                     "
};
