/* XPM */
static char *cat_idle_11691844982[] = {
/* columns rows colors chars-per-pixel */
"24 24 4 1 ",
"  c None",
". c #2F2F2E",
"X c gray71",
"o c gray88",
/* pixels */
"                        ",
"                        ",
"                        ",
"                        ",
"                        ",
"                        ",
"         ..   ..        ",
"         .X...X.        ",
"         .Xoooo.        ",
"         .X.XX..        ",
"         .Xoooo.        ",
"         .XXXXX.        ",
"        .XXooo.         ",
"        .XXooo.         ",
"        .Xoooo.         ",
"     ...XXo.o.o.        ",
"    .XX.XXo.o.o.        ",
"    ............        ",
"                        ",
"                        ",
"                        ",
"                        ",
"                        ",
"                        "
};
