/* XPM */
static char *cat_walk_11691848192[] = {
/* columns rows colors chars-per-pixel */
"23 20 4 1 ",
"  c None",
". c #2F2F2E",
"X c gray71",
"o c gray88",
/* pixels */
"                       ",
"                       ",
"                       ",
"                       ",
"                       ",
"           ..  ..      ",
"      ..   .X....      ",
"     .o.   .Xooo.      ",
"     .o.   .Xo.XX.     ",
"     .o.   .Xoooo.     ",
"     .o.....XXXXX.     ",
"      .ooooooooo.      ",
"      .ooooooooo.      ",
"      .o.ooo.oXo.      ",
"      .X.....o.o.      ",
"      .. .. .. ..      ",
"                       ",
"                       ",
"                       ",
"                       "
};
