/* XPM */
static char *cat_walk_51691848193[] = {
/* columns rows colors chars-per-pixel */
"28 20 4 1 ",
"  c None",
". c #2F2F2E",
"X c gray71",
"o c gray88",
/* pixels */
"                            ",
"                            ",
"                            ",
"                            ",
"                            ",
"                            ",
"                .. ..       ",
"               .X....       ",
"        ..     .Xooo.       ",
"       .oo.    .Xo.XX.      ",
"      .o..o.   .Xoooo.      ",
"      .. .o.....XXXXX.      ",
"          .ooooooooo.       ",
"          .ooooooooo.       ",
"         .ooooooooXXo.      ",
"         .o......o..o.      ",
"         .. ..  ..  ..      ",
"                            ",
"                            ",
"                            "
};
