/* XPM */
static char *cat_walk_31691848192[] = {
/* columns rows colors chars-per-pixel */
"21 21 4 1 ",
"  c None",
". c #2F2F2E",
"X c gray71",
"o c gray88",
/* pixels */
"                     ",
"                     ",
"                     ",
"                     ",
"                     ",
"           .....     ",
"          .Xo.o..    ",
"  ..      .Xo.XX.    ",
" .o.      .Xoooo.    ",
" .o........XXXXX.    ",
"  .oo.ooooooooo.     ",
"   ...oo.ooooo..     ",
"   .XX.oX.oo.ooo.    ",
"   .............     ",
"                     ",
"                     ",
"                     ",
"                     ",
"                     ",
"                     ",
"                     "
};
