/* XPM */
static char *cat_walk_81691848193[] = {
/* columns rows colors chars-per-pixel */
"25 20 4 1 ",
"  c None",
". c #2F2F2E",
"X c gray71",
"o c gray88",
/* pixels */
"                         ",
"                         ",
"                         ",
"                         ",
"              .. ..      ",
"        ..   .X..X.      ",
"       .o.  .Xooo.       ",
"       .o.  .Xo.XX.      ",
"       .o.  .Xoooo.      ",
"      .o.....XXXXX.      ",
"       .ooooooooo.       ",
"       .ooooooooo.       ",
"       .o.ooo.oXXo.      ",
"      .X.....o...o.      ",
"      ..    ..   .       ",
"                         ",
"                         ",
"                         ",
"                         ",
"                         "
};
