/* XPM */
static char *cat_walk_21691848192[] = {
/* columns rows colors chars-per-pixel */
"21 21 4 1 ",
"  c None",
". c #2F2F2E",
"X c gray71",
"o c gray88",
/* pixels */
"                     ",
"                     ",
"                     ",
"                     ",
"                     ",
"            .. ..    ",
"           .X..X.    ",
"     ..   .Xooo.     ",
"    .o.   .Xo.XX.    ",
"   .o.    .Xoooo.    ",
"   .oo.....XXXXX.    ",
"    ..ooooooooo.     ",
"     .ooooooooo.     ",
"     .oo.oo.o..      ",
"    .X.X.....o.      ",
"    .. ..    ..      ",
"                     ",
"                     ",
"                     ",
"                     ",
"                     "
};
