/* XPM */
static char *run51691856063[] = {
/* columns rows colors chars-per-pixel */
"32 32 6 1 ",
"  c None",
". c #383530",
"X c #5B5848",
"o c #DCA05D",
"O c #B1AE9B",
"+ c #C2BFAE",
/* pixels */
"                                ",
"                                ",
"                                ",
"                                ",
"                                ",
"                                ",
"                                ",
"                                ",
"                                ",
"                                ",
"                                ",
"                                ",
"                                ",
"                                ",
"                                ",
"                                ",
"                                ",
"                 .     .        ",
"                .O.   .O.       ",
"       .        .oO...Oo.       ",
"      .+.      .OOOOOOOOO.      ",
"      .O.      .OOOXOOOXO.      ",
"      .O.      .OOOOOOOO.       ",
"       .O.     ..+++OOO.        ",
"       .O+.....O+++++++.        ",
"       .O++++OO+++++++.         ",
"        .+++++++++++++.         ",
"         .+++++....++.          ",
"         .++...    .+.          ",
"         .+.       X.           ",
"         .+.                    ",
"         .X.                    "
};
