/* XPM */
static char *run61691856063[] = {
/* columns rows colors chars-per-pixel */
"32 32 6 1 ",
"  c None",
". c #383530",
"X c #5B5848",
"o c #DCA05D",
"O c #B1AE9B",
"+ c #C2BFAE",
/* pixels */
"                                ",
"                                ",
"                                ",
"                                ",
"                                ",
"                                ",
"                                ",
"                                ",
"                                ",
"                                ",
"                                ",
"                                ",
"                                ",
"                                ",
"                                ",
"                 .     .        ",
"                .O.   .O.       ",
"                .oO. .Oo.       ",
"                .OOO.OOO.       ",
"               .OOOOOOOOO.      ",
"       ..      .OOOXOOOXO.      ",
"      .O+.     .OOOOOOOOO.      ",
"      .O.      .OOOOOOOO.       ",
"      .O.      ..+++OOO.        ",
"      .OO......O+++++++.        ",
"       .O++++OO+++++++.         ",
"        .+++++++++++++.         ",
"         .+++++....++.          ",
"         .++...    .+.          ",
"         .+.        .X          ",
"        .+.                     ",
"        X.                      "
};
